<svg width="81" height="20" viewBox="0 0 81 20" fill="none" xmlns="http://www.w3.org/2000/svg">
<path d="M14.475 0.874999C14.475 0.625 14.35 0.5 14.075 0.474999C13.15 0.349999 11.625 0.174999 9.2 0.174999C5.675 0.174999 2.675 0.725 1.8 5.775L0.425 13.625C0.35 14.075 0.3 14.5 0.3 14.9C0.3 18.175 2.975 19.225 5.9 19.225C8.325 19.225 9.85 19.05 10.825 18.925C11.15 18.875 11.35 18.725 11.4 18.425L11.95 15.375C11.95 15.35 11.95 15.325 11.95 15.3C11.95 15.05 11.775 14.875 11.525 14.875H6.475C5.75 14.875 5.45 14.7 5.45 14.125C5.45 13.975 5.475 13.825 5.5 13.625L5.875 11.55H12.025C12.3 11.55 12.55 11.325 12.6 11.05L13.125 8.1C13.125 8.075 13.125 8.05 13.125 8.025C13.125 7.775 12.95 7.6 12.7 7.6H6.55L6.875 5.775C7.05 4.825 7.4 4.525 8.3 4.525H13.35C13.625 4.525 13.9 4.3 13.95 4.025L14.475 0.975C14.475 0.924999 14.475 0.899999 14.475 0.874999ZM20.6484 10.125C20.6484 9.875 20.4734 9.725 20.2234 9.725H15.3984C15.1234 9.725 14.8734 9.925 14.8234 10.2L14.3734 12.75C14.3734 12.775 14.3734 12.8 14.3734 12.825C14.3734 13.075 14.5484 13.225 14.7984 13.225H19.6234C19.8984 13.225 20.1484 13.025 20.1984 12.75L20.6484 10.2C20.6484 10.175 20.6484 10.15 20.6484 10.125ZM43.16 0.824999C43.16 0.599998 42.96 0.424999 42.71 0.424999H30.11C29.835 0.424999 29.585 0.625 29.535 0.899999L28.96 4.1C28.96 4.125 28.96 4.15 28.96 4.175C28.96 4.425 29.135 4.575 29.385 4.575H33.185L30.735 18.5C30.735 18.525 30.735 18.55 30.735 18.6C30.735 18.825 30.885 19 31.135 19H35.21C35.485 19 35.76 18.775 35.81 18.5L38.26 4.575H41.985C42.26 4.575 42.535 4.375 42.585 4.1L43.16 0.899999C43.16 0.874999 43.16 0.85 43.16 0.824999ZM56.1287 9.6C56.1287 6.625 54.4287 4.225 50.8037 4.225C46.6287 4.225 43.7787 6.075 42.9537 11.025L42.6787 12.675C42.6037 13.125 42.5787 13.55 42.5787 13.95C42.5787 17.5 45.3287 19.225 48.1037 19.225C50.2037 19.225 51.9037 18.975 53.5787 18.45C54.0037 18.325 54.1287 18.15 54.2037 17.75L54.6037 15.5C54.6037 15.45 54.6037 15.425 54.6037 15.4C54.6037 15.175 54.4537 15.075 54.2287 15.075C54.1787 15.075 54.1537 15.075 54.1287 15.075C53.1787 15.175 50.6537 15.275 49.3287 15.275C48.0787 15.275 47.2787 15.1 47.2787 13.85C47.2787 13.625 47.3037 13.375 47.3537 13.075H55.1287C55.4287 13.075 55.7037 12.85 55.7537 12.525L56.0037 11.025C56.0787 10.55 56.1287 10.075 56.1287 9.6ZM51.6287 9.425C51.6287 9.725 51.5787 10.075 51.5037 10.425H47.8037C48.1037 9 48.7037 7.95 50.1037 7.95C51.2287 7.95 51.6287 8.55 51.6287 9.425ZM69.5678 5.3C69.5678 5.075 69.4178 4.925 69.1678 4.85C68.0428 4.525 66.5428 4.225 64.6178 4.225C61.4178 4.225 58.3928 5.175 58.3928 8.9C58.3928 10.2 59.0428 11.525 60.1428 12.175L62.9178 13.825C63.3928 14.1 63.5178 14.3 63.5178 14.525C63.5178 15.275 62.8178 15.375 62.2178 15.375C61.3928 15.375 59.4178 15.175 57.9678 14.975C57.9428 14.975 57.8928 14.975 57.8678 14.975C57.5428 14.975 57.3178 15.175 57.2678 15.5L56.8178 18.075C56.8178 18.125 56.8178 18.15 56.8178 18.175C56.8178 18.4 56.9428 18.55 57.1928 18.625C58.2678 18.95 60.0678 19.225 61.8428 19.225C65.3178 19.225 68.3678 17.95 68.3678 14.05C68.3678 12.925 67.8678 11.75 66.3428 10.85L63.7178 9.275C63.4178 9.1 63.2678 8.925 63.2678 8.75C63.2678 8.2 63.8928 8.15 64.2928 8.15C65.4178 8.15 67.7928 8.45 68.5178 8.55C68.5428 8.55 68.5678 8.55 68.5928 8.55C68.8678 8.55 69.0428 8.325 69.0928 8.05L69.5678 5.4C69.5678 5.375 69.5678 5.325 69.5678 5.3ZM80.9334 4.85C80.9334 4.625 80.7834 4.45 80.5334 4.45H78.6334L79.1084 1.725C79.1084 1.7 79.1084 1.675 79.1084 1.65C79.1084 1.425 78.9334 1.25 78.7084 1.25C78.6834 1.25 78.6584 1.25 78.6334 1.25L74.8084 1.9C74.5084 1.95 74.2334 2.15 74.1834 2.425L73.8334 4.45H72.1834C71.8834 4.45 71.6084 4.7 71.5584 4.975L71.1834 7.075C71.1834 7.1 71.1834 7.125 71.1834 7.15C71.1834 7.4 71.3584 7.575 71.6084 7.625L73.2084 8L72.0334 14.675C71.9584 15.15 71.9084 15.575 71.9084 15.975C71.9084 18.4 73.4584 19.225 75.6334 19.225C76.5584 19.225 77.0084 19.15 77.9084 19C78.2084 18.95 78.4834 18.775 78.5334 18.5L78.9334 16.15C78.9334 16.125 78.9334 16.1 78.9334 16.075C78.9334 15.825 78.7334 15.675 78.4834 15.675H77.3334C76.8834 15.675 76.7334 15.575 76.7334 15.25C76.7334 15.125 76.7584 14.95 76.8084 14.725L78.0084 8H79.9084C80.1834 8 80.4334 7.775 80.4834 7.5L80.9334 4.95C80.9334 4.925 80.9334 4.9 80.9334 4.85Z" fill="#201C1C"/>
</svg>
